<?xml version="1.0" encoding="iso-8859-1"?>
<!-- Generator: Adobe Illustrator 16.0.0, SVG Export Plug-In . SVG Version: 6.00 Build 0)  -->
<!DOCTYPE svg PUBLIC "-//W3C//DTD SVG 1.1//EN" "http://www.w3.org/Graphics/SVG/1.1/DTD/svg11.dtd">
<svg version="1.1" id="Capa_1" xmlns="http://www.w3.org/2000/svg" xmlns:xlink="http://www.w3.org/1999/xlink" x="0px" y="0px"
	 width="479.355px" height="479.355px" viewBox="0 0 479.355 479.355" style="enable-background:new 0 0 479.355 479.355;" fill=' #152137'
	 xml:space="preserve">
<g >
	<g>
		<path d="M163.438,237.523l26.077-7.585c5.821,3.391,12.202,5.708,18.976,6.96c0.279,0.318,0.551,0.63,0.858,0.948
			c11.134,11.128,25.938,17.265,41.688,17.265c10.437,0,20.646-2.755,29.628-7.941l25.67,7.999c0.263,0.085,0.53,0.105,0.792,0.105
			c0.693,0,1.38-0.262,1.884-0.766c0.703-0.693,0.983-1.722,0.703-2.667l-7.585-26.074c13.55-23.194,9.832-52.426-9.232-71.495
			c-8.494-8.499-19.23-14.082-31.083-16.249c-0.257-0.294-0.52-0.591-0.803-0.882c-11.161-11.158-25.995-17.302-41.77-17.302
			c-15.783,0-30.62,6.145-41.78,17.302c-18.989,18.998-22.748,48.153-9.326,71.316l-8.002,25.672
			c-0.296,0.953-0.044,1.979,0.65,2.683C161.461,237.533,162.498,237.806,163.438,237.523z M289.105,158.088
			c17.58,17.583,20.798,44.685,7.821,65.919c-0.388,0.646-0.493,1.426-0.283,2.15l6.51,22.396l-22.031-6.866
			c-0.751-0.226-1.543-0.125-2.194,0.268c-8.404,5.087-18.027,7.785-27.891,7.785c-12.381,0-24.11-4.168-33.6-11.837
			c0.271,0.01,0.539-0.021,0.809-0.016c0.37,0.005,0.74,0.047,1.118,0.047l0,0c0.761,0,1.509-0.078,2.268-0.113
			c0.908-0.031,1.815-0.052,2.719-0.129c1.092-0.089,2.165-0.241,3.241-0.391c0.876-0.113,1.759-0.221,2.625-0.388
			c1.084-0.192,2.15-0.462,3.213-0.725c0.835-0.2,1.683-0.375,2.501-0.62c1.079-0.318,2.128-0.704,3.197-1.068
			c0.786-0.286,1.571-0.527,2.333-0.835c1.075-0.435,2.132-0.944,3.176-1.457c0.72-0.339,1.444-0.633,2.127-1.011
			c1.07-0.569,2.13-1.22,3.171-1.853c0.629-0.383,1.259-0.728,1.898-1.128c1.108-0.738,2.158-1.56,3.235-2.373
			c0.504-0.387,1.028-0.73,1.521-1.135c1.532-1.251,3.013-2.585,4.431-3.997c1.364-1.363,2.615-2.77,3.82-4.221
			c0.395-0.473,0.735-0.969,1.104-1.445c0.776-0.996,1.548-1.996,2.246-3.027c0.405-0.591,0.756-1.205,1.146-1.806
			c0.593-0.958,1.197-1.908,1.727-2.892c0.361-0.657,0.693-1.329,1.014-2.001c0.482-0.956,0.955-1.914,1.381-2.892
			c0.314-0.699,0.571-1.407,0.854-2.119c0.367-0.965,0.74-1.939,1.061-2.923c0.241-0.73,0.462-1.463,0.672-2.198
			c0.294-0.989,0.546-1.979,0.776-2.979c0.169-0.745,0.337-1.488,0.479-2.241c0.194-1.01,0.342-2.021,0.493-3.037
			c0.101-0.748,0.21-1.488,0.277-2.236c0.106-1.042,0.153-2.092,0.2-3.139c0.031-0.728,0.085-1.447,0.085-2.171
			c0-1.103-0.054-2.205-0.111-3.312c-0.031-0.667-0.041-1.338-0.099-2.006c-0.116-1.278-0.306-2.548-0.483-3.816
			c-0.085-0.488-0.111-0.979-0.199-1.462c-0.314-1.753-0.693-3.488-1.155-5.215c-0.104-0.359-0.252-0.714-0.346-1.074
			c-0.395-1.354-0.81-2.703-1.309-4.037c-0.231-0.614-0.52-1.215-0.771-1.824c-0.429-1.057-0.87-2.115-1.374-3.154
			c-0.327-0.672-0.704-1.329-1.041-1.988c-0.504-0.952-1.008-1.902-1.574-2.834c-0.404-0.677-0.844-1.339-1.285-2
			c-0.374-0.57-0.715-1.155-1.104-1.709C275.646,147.521,283.005,151.994,289.105,158.088z M173.613,208.923
			c0.226-0.735,0.128-1.535-0.268-2.191c-12.869-21.203-9.612-48.256,7.911-65.781c10.145-10.141,23.63-15.727,37.977-15.727
			c14.349,0,27.835,5.585,37.977,15.722c0.215,0.226,0.426,0.462,0.636,0.701l0.582,0.672c19.863,21.262,19.344,54.021-1.229,74.583
			c-4.409,4.411-9.5,7.9-14.981,10.496c-7.055,3.333-14.8,5.155-22.853,5.155c-3.01,0-6.042-0.252-9.01-0.75
			c-6.864-1.152-13.282-3.533-19.066-7.071c-0.425-0.257-0.908-0.391-1.404-0.391c-0.252,0-0.504,0.031-0.75,0.108l-22.395,6.509
			L173.613,208.923z"/>
		<path d="M174.543,316.702c0-0.356-0.069-0.715-0.203-1.029c-0.092-0.221-0.244-0.399-0.383-0.571
			c-0.069-0.101-0.108-0.2-0.195-0.29c-0.247-0.252-0.541-0.45-0.869-0.571c-0.005,0-0.005-0.011-0.01-0.011l-58.893-24.3v-12.493
			c12.583-2.782,21.806-14.042,21.806-27.15v-20.118c4.189-5.011,6.483-11.294,6.483-17.809v-14.305
			c0-15.341-12.48-27.822-27.822-27.822h-53.81c-15.341,0-27.822,12.48-27.822,27.822v14.305c0,6.514,2.294,12.798,6.483,17.809
			v20.118c0,13.108,9.223,24.368,21.814,27.15v12.483L1.671,314.225c-0.005,0-0.005,0.01-0.01,0.01
			c-0.334,0.127-0.63,0.325-0.877,0.577c-0.005,0-0.005,0.011-0.01,0.011c-0.26,0.264-0.446,0.583-0.58,0.935
			c-0.116,0.306-0.188,0.609-0.188,0.945L0,316.712v40.117c0,1.48,1.204,2.688,2.688,2.688l0,0l0,0h169.178
			c1.486,0,2.688-1.207,2.688-2.688v-40.117C174.548,316.702,174.543,316.702,174.543,316.702z M44.68,250.286v-21.124
			c0-0.666-0.247-1.306-0.688-1.794c-0.383-0.42-0.667-0.903-1.01-1.349c12.517-1.41,23.032-9.494,27.903-20.604
			c5.725,15.942,20.963,27.409,38.917,27.409l20.62-0.629v18.114c0,11.19-8.373,20.75-19.476,22.225
			c-1.336,0.179-2.331,1.312-2.331,2.667v16.566l0,0v15.519c-0.47,0.473-0.759,1.122-0.759,1.857
			c-0.312,1.345-7.031,4.902-20.308,4.902c-13.278,0-19.998-3.558-20.304-4.882c0-0.725-0.289-1.385-0.758-1.868v-15.518
			c0-0.011,0-0.011,0-0.011v-16.577c0-1.345-0.998-2.487-2.331-2.667C53.055,271.043,44.68,261.488,44.68,250.286z"/>
		<path d="M346.796,297.741l-40.325,16.483c-1.008,0.41-1.681,1.396-1.681,2.487v40.117c0,1.48,1.218,2.688,2.688,2.688h169.188
			c1.48,0,2.688-1.207,2.688-2.688v-40.117c0-1.091-0.652-2.077-1.67-2.487l-39.863-16.441
			c23.123-3.077,30.654-14.872,31.018-15.434c0.51-0.818,0.53-1.875,0.058-2.719c-0.483-0.85-1.374-1.382-2.355-1.382
			c-15.036,0-19.271-27.862-19.303-27.862v-46.854c0-0.283-0.084-0.548-0.147-0.806v-4.682c0-15.341-12.483-27.822-27.832-27.822
			h-53.806c-15.345,0-27.834,12.48-27.834,27.822v14.305c0,0.021,0.011,0.036,0.011,0.057l0.021,37.601
			c-0.047,0.301-4.23,28.241-19.333,28.241c-0.972,0-1.868,0.542-2.346,1.392c-0.483,0.834-0.452,1.891,0.052,2.72
			C316.393,282.916,323.883,294.602,346.796,297.741z M348.803,227.362c-0.379-0.42-0.673-0.903-1.008-1.349
			c12.515-1.41,23.033-9.494,27.889-20.604c5.729,15.942,20.967,27.41,38.92,27.41l20.63-0.63v18.107
			c0,11.192-8.383,20.757-19.485,22.227c-1.334,0.18-2.337,1.312-2.337,2.667v15.754l-21.061,32.053l-21.061-32.053V275.18
			c0-1.345-0.997-2.488-2.33-2.667c-11.097-1.454-19.477-11.024-19.477-22.227v-21.124
			C349.483,228.491,349.242,227.851,348.803,227.362z"/>
		<path d="M431.302,218.16c1.485,0,2.688-1.205,2.688-2.688v-26.113c0-1.486-1.202-2.688-2.688-2.688
			c-1.48,0-2.688,1.202-2.688,2.688v26.113C428.614,216.95,429.821,218.16,431.302,218.16z"/>
	</g>
</g>
<g>
</g>
<g>
</g>
<g>
</g>
<g>
</g>
<g>
</g>
<g>
</g>
<g>
</g>
<g>
</g>
<g>
</g>
<g>
</g>
<g>
</g>
<g>
</g>
<g>
</g>
<g>
</g>
<g>
</g>
</svg>
