<?xml version="1.0" encoding="iso-8859-1"?>
<!-- Generator: Adobe Illustrator 19.0.0, SVG Export Plug-In . SVG Version: 6.00 Build 0)  -->
<svg version="1.1" id="Layer_1" xmlns="http://www.w3.org/2000/svg" xmlns:xlink="http://www.w3.org/1999/xlink" x="0px" y="0px"
	 viewBox="0 0 496 496" style="enable-background:new 0 0 496 496;" xml:space="preserve" fill=' #152137'>
<g>
	<g>
		<path d="M471.032,240c-5.44,0-10.72,1.904-15.032,5.168V16H290.192C278.912,6.072,264.168,0,248,0
			c-16.168,0-30.912,6.072-42.192,16H40v229.168C35.688,241.904,30.408,240,24.968,240C11.2,240,0,251.2,0,264.968
			c0,6.576,2.664,13.008,7.312,17.656L72,347.312V496h80V347.312l64.688-64.688c4.648-4.648,7.312-11.08,7.312-17.656
			c0-0.44-0.104-0.848-0.128-1.288c6.864,5.272,15.304,8.32,24.128,8.32c8.824,0,17.264-3.048,24.128-8.312
			c-0.024,0.432-0.128,0.84-0.128,1.28c0,6.576,2.664,13.008,7.312,17.656L344,347.312V496h80V347.312l64.688-64.688
			c4.648-4.648,7.312-11.08,7.312-17.656C496,251.2,484.8,240,471.032,240z M424,224V32h16v208h-16.808
			c-1.216-5.944-3.856-11.328-7.392-16H424z M423.192,256h21.496l-32,32H384h-28.688l-32-32h21.496c3.72,18.232,19.872,32,39.192,32
			C403.32,288,419.472,274.232,423.192,256z M360,248c0-13.232,10.768-24,24-24s24,10.768,24,24s-10.768,24-24,24
			S360,261.232,360,248z M408,32v176H256v-40h32v-32h16v-16h-16v-6.08c15.104-12.128,24-30.48,24-49.92
			c0-11.664-3.184-22.576-8.656-32H408z M272,136v16h-48v-16H272z M240,64c0-4.416,3.584-8,8-8s8,3.584,8,8s-3.584,8-8,8
			C243.584,72,240,68.416,240,64z M248,16c26.472,0,48,21.528,48,48c0,15.64-7.696,30.36-20.576,39.368L272,105.752V120h-16V86.528
			c9.288-3.312,16-12.112,16-22.528c0-13.232-10.768-24-24-24s-24,10.768-24,24c0,10.416,6.712,19.216,16,22.528V120h-16v-14.248
			l-3.424-2.384C207.696,94.36,200,79.64,200,64C200,37.528,221.528,16,248,16z M88,32h104.656C187.184,41.424,184,52.336,184,64
			c0,19.448,8.896,37.8,24,49.92V120h-16v16h16v32h32v40H88V32z M112,224c13.232,0,24,10.768,24,24s-10.768,24-24,24
			s-24-10.768-24-24S98.768,224,112,224z M56,32h16v192h8.208c-3.536,4.672-6.184,10.056-7.392,16H56V32z M72.808,256
			c3.72,18.232,19.872,32,39.192,32s35.472-13.768,39.192-32h21.496l-32,32H112H83.312l-32-32H72.808z M18.624,271.312
			C16.952,269.64,16,267.328,16,264.968c0-4.944,4.024-8.968,8.968-8.968c2.36,0,4.672,0.952,6.344,2.624L52.688,280L40,292.688
			L18.624,271.312z M104,480H88v-16h16V480z M136,480h-16v-16h16V480z M136,448h-16v-48h-16v48H88v-64h48V448z M136,340.688V368H88
			v-27.312L51.312,304L64,291.312L76.688,304H104v16h16v-16h27.312L160,291.312L172.688,304L136,340.688z M205.376,271.312
			L184,292.688L171.312,280l21.376-21.376c1.672-1.672,3.984-2.624,6.344-2.624c4.944,0,8.968,4.024,8.968,8.968
			C208,267.328,207.048,269.64,205.376,271.312z M270.96,240l-2.312,3.976C264.264,251.504,256.544,256,248,256
			s-16.264-4.496-20.648-12.024L225.04,240h-73.848c-1.216-5.944-3.856-11.328-7.392-16h208.408c-3.536,4.672-6.184,10.056-7.392,16
			H270.96z M290.624,271.312c-1.672-1.672-2.624-3.984-2.624-6.344c0-4.944,4.024-8.968,8.968-8.968c2.36,0,4.672,0.952,6.344,2.624
			L324.688,280L312,292.688L290.624,271.312z M376,480h-16v-16h16V480z M408,480h-16v-16h16V480z M408,448h-16v-48h-16v48h-16v-64
			h48V448z M408,340.688V368h-48v-27.312L323.312,304L336,291.312L348.688,304H376v16h16v-16h27.312L432,291.312L444.688,304
			L408,340.688z M477.376,271.312L456,292.688L443.312,280l21.376-21.376c1.672-1.672,3.984-2.624,6.344-2.624
			c4.944,0,8.968,4.024,8.968,8.968C480,267.328,479.048,269.64,477.376,271.312z"/>
	</g>
</g>
<g>
</g>
<g>
</g>
<g>
</g>
<g>
</g>
<g>
</g>
<g>
</g>
<g>
</g>
<g>
</g>
<g>
</g>
<g>
</g>
<g>
</g>
<g>
</g>
<g>
</g>
<g>
</g>
<g>
</g>
</svg>
