<?xml version="1.0" encoding="iso-8859-1"?>
<!-- Generator: Adobe Illustrator 19.0.0, SVG Export Plug-In . SVG Version: 6.00 Build 0)  -->
<svg version="1.1" id="Layer_1" xmlns="http://www.w3.org/2000/svg" xmlns:xlink="http://www.w3.org/1999/xlink" x="0px" y="0px"
	 viewBox="0 0 496 496" style="enable-background:new 0 0 496 496;" xml:space="preserve" fill='#5688E4'>
<g>
	<g>
		<path d="M366.56,319.488L304,305.584V296h32h8h64V32h-64h-8h-0.824C323.8,12.464,302.76,0,280,0
			c-11.384,0-22.312,3.2-31.872,8.736C238.672,3.216,227.72,0,216,0c-23.624,0-44.256,12.904-55.344,32H88v264h104v9.584
			l-62.56,13.896C81.488,330.144,48,371.88,48,421.008V496h400v-74.992C448,371.88,414.512,330.144,366.56,319.488z M376,48h16v216
			l-16-12V48z M386.672,280h-37.344L368,266L386.672,280z M344,48h16v204l-16,12V48z M304.616,322.104l-0.312,0.088l13.616,47.664
			l-31.216,6.24l15.912-54.44L304.616,322.104z M280,16c13.728,0,26.688,6.016,35.672,16h-44.328
			c-2.608-4.488-5.728-8.64-9.312-12.36C267.672,17.336,273.736,16,280,16z M248.064,28.376c1.264,1.144,2.472,2.352,3.616,3.624
			h-7.344C245.496,30.704,246.768,29.528,248.064,28.376z M216,16c6.44,0,12.576,1.296,18.2,3.608
			c-3.6,3.696-6.736,7.848-9.376,12.392H180.32C189.12,22.208,201.832,16,216,16z M104,280V48h50.104
			C152.776,53.128,152,58.464,152,64v16h16V64c0-5.616,1.024-10.984,2.8-16h90.4c1.776,5.016,2.8,10.384,2.8,16v16h16V64
			c0-5.536-0.776-10.872-2.104-16H328v232h-24h-16h-80h-16H104z M191.384,322.112l2-0.448l15.912,54.44l-31.216-6.24l13.616-47.664
			L191.384,322.112z M144,480v-32h-16v32H64v-58.992c0-41.56,28.336-76.888,68.904-85.896l41.064-9.128l-16.048,56.16l37.376,7.48
			l-21.368,35.624L228.688,480H144z M194.072,422.76l19.408-32.344l21.376,73.128L194.072,422.76z M208,314.632V296h80v18.632
			L248,451.48L208,314.632z M282.52,390.416l19.408,32.344l-40.784,40.784L282.52,390.416z M432,480h-64v-32h-16v32h-84.688
			l54.76-54.76l-21.368-35.624l37.376-7.48l-16.048-56.16l41.064,9.128C403.664,344.12,432,379.448,432,421.008V480z"/>
	</g>
</g>
<g>
</g>
<g>
</g>
<g>
</g>
<g>
</g>
<g>
</g>
<g>
</g>
<g>
</g>
<g>
</g>
<g>
</g>
<g>
</g>
<g>
</g>
<g>
</g>
<g>
</g>
<g>
</g>
<g>
</g>
</svg>
