<?xml version="1.0" encoding="iso-8859-1"?>
<!-- Generator: Adobe Illustrator 16.0.0, SVG Export Plug-In . SVG Version: 6.00 Build 0)  -->
<!DOCTYPE svg PUBLIC "-//W3C//DTD SVG 1.1//EN" "http://www.w3.org/Graphics/SVG/1.1/DTD/svg11.dtd">
<svg version="1.1" id="Capa_1" xmlns="http://www.w3.org/2000/svg" xmlns:xlink="http://www.w3.org/1999/xlink" x="0px" y="0px"
	 width="45.451px" height="45.451px" viewBox="0 0 45.451 45.451" style="enable-background:new 0 0 45.451 45.451;"
	 xml:space="preserve" fill='#152137'>
<g>
	<g>
		<path d="M27.828,28.41c-1.102-1.004-1.985-2.243-2.571-3.639H6.723c-1.265,0-2.248-1.021-2.248-2.287V6.4
			c0-1.266,0.983-2.308,2.248-2.308H32.41c1.267,0,2.33,1.042,2.33,2.308v4.054c0.015,0,0.025,0,0.039,0
			c1.396,0,2.73,0.28,3.947,0.785V6.4c0-3.514-2.804-6.4-6.316-6.4H6.723C3.209,0,0.381,2.887,0.381,6.4v16.086
			c0,3.513,2.829,6.379,6.342,6.379h3.81c0.221,1.832,1.824,3.34,3.773,3.34h9.508c0.118-0.17,0.239-0.338,0.365-0.502
			C25.199,30.369,26.438,29.259,27.828,28.41z"/>
		<path d="M19.5,22.974c0.565,0,1.023-0.459,1.023-1.024v-1.109c2.369-0.418,3.715-2.007,3.715-3.869
			c0-1.881-1.013-3.031-3.499-3.91c-1.777-0.668-2.51-1.107-2.51-1.798c0-0.585,0.439-1.171,1.799-1.171
			c0.791,0,1.432,0.133,1.94,0.292c0.284,0.089,0.592,0.057,0.852-0.087c0.26-0.144,0.448-0.389,0.521-0.676l0.064-0.249
			c0.146-0.566-0.178-1.146-0.738-1.309c-0.551-0.159-1.176-0.276-2.037-0.313V6.936c0-0.565-0.458-1.024-1.023-1.024
			c-0.565,0-1.024,0.458-1.024,1.024v0.962c-2.261,0.438-3.543,1.882-3.543,3.722c0,2.028,1.522,3.073,3.759,3.826
			c1.55,0.524,2.215,1.025,2.215,1.819c0,0.837-0.816,1.296-2.009,1.296c-0.862,0-1.673-0.176-2.375-0.428
			c-0.287-0.102-0.604-0.081-0.873,0.062c-0.271,0.143-0.467,0.392-0.543,0.688l-0.082,0.324c-0.142,0.544,0.169,1.105,0.701,1.291
			c0.75,0.26,1.675,0.447,2.643,0.49v0.962C18.476,22.515,18.934,22.974,19.5,22.974z"/>
		<path d="M44.984,38.447c-0.755-5.635-5.931-9.594-11.565-8.842c-5.636,0.75-9.594,5.928-8.843,11.563l0.047,0.362
			c0.298,2.234,2.205,3.92,4.459,3.92h11.396c2.255,0,4.162-1.686,4.46-3.92l0.047-0.354C45.095,40.311,45.103,39.355,44.984,38.447
			z"/>
		<circle cx="34.779" cy="20.781" r="7.276"/>
	</g>
</g>
<g>
</g>
<g>
</g>
<g>
</g>
<g>
</g>
<g>
</g>
<g>
</g>
<g>
</g>
<g>
</g>
<g>
</g>
<g>
</g>
<g>
</g>
<g>
</g>
<g>
</g>
<g>
</g>
<g>
</g>
</svg>
