<?xml version="1.0" encoding="iso-8859-1"?>
<!-- Generator: Adobe Illustrator 16.0.0, SVG Export Plug-In . SVG Version: 6.00 Build 0)  -->
<!DOCTYPE svg PUBLIC "-//W3C//DTD SVG 1.1//EN" "http://www.w3.org/Graphics/SVG/1.1/DTD/svg11.dtd">
<svg version="1.1" id="Capa_1" xmlns="http://www.w3.org/2000/svg" xmlns:xlink="http://www.w3.org/1999/xlink" x="0px" y="0px"
	 width="124.059px" height="124.059px" viewBox="0 0 124.059 124.059" style="enable-background:new 0 0 124.059 124.059;"
	 xml:space="preserve">
<g fill="#2d4573">
	<g>
		<path d="M8.54,84.172c0.456-0.352,1.186-0.525,2.188-0.525c1.94,0,4.245,0.611,6.915,1.836l2.363-5.959
			c-3.073-1.365-6.088-2.05-9.045-2.05c-3.347,0-5.979,0.734-7.891,2.207c-1.915,1.472-2.873,3.521-2.873,6.152
			c0,1.407,0.225,2.626,0.674,3.653c0.448,1.028,1.142,1.939,2.07,2.733c0.933,0.795,2.329,1.615,4.19,2.462
			c2.058,0.924,3.324,1.537,3.801,1.838c0.474,0.299,0.82,0.596,1.035,0.889s0.321,0.635,0.321,1.024c0,0.625-0.266,1.138-0.8,1.533
			c-0.535,0.397-1.373,0.597-2.521,0.597c-1.328,0-2.787-0.211-4.377-0.635C3.001,99.504,1.471,98.915,0,98.161v6.875
			c1.394,0.666,2.734,1.129,4.024,1.396c1.289,0.268,2.886,0.402,4.785,0.402c2.279,0,4.267-0.381,5.96-1.143
			c1.693-0.763,2.989-1.83,3.887-3.205s1.348-2.945,1.348-4.72c0-1.926-0.479-3.524-1.435-4.795
			c-0.958-1.269-2.668-2.458-5.129-3.565c-2.566-1.172-4.14-1.979-4.718-2.422c-0.58-0.442-0.869-0.943-0.869-1.504
			C7.856,84.96,8.083,84.526,8.54,84.172z"/>
		<polygon points="20.731,84.194 27.705,84.194 27.705,106.444 35.424,106.444 35.424,84.194 42.378,84.194 42.378,77.883 
			20.731,77.883 		"/>
		<path d="M57.733,77.433c-4.531,0-7.987,1.253-10.363,3.761c-2.378,2.508-3.566,6.137-3.566,10.893
			c0,4.805,1.194,8.464,3.586,10.977c2.39,2.514,5.824,3.772,10.304,3.772c4.545,0,7.998-1.251,10.354-3.753
			c2.358-2.5,3.537-6.152,3.537-10.959c0-4.817-1.173-8.471-3.517-10.959C65.723,78.676,62.279,77.433,57.733,77.433z
			 M62.041,98.395c-0.944,1.34-2.392,2.012-4.348,2.012c-3.841,0-5.763-2.762-5.763-8.283c0-5.572,1.936-8.359,5.803-8.359
			c1.9,0,3.33,0.682,4.288,2.04c0.958,1.36,1.436,3.47,1.436,6.319C63.457,94.963,62.985,97.053,62.041,98.395z"/>
		<path d="M87.857,83.802c1.213,0,2.346,0.168,3.4,0.506c1.055,0.341,2.107,0.757,3.163,1.253l2.364-6.076
			c-2.813-1.342-5.762-2.012-8.851-2.012c-2.825,0-5.284,0.602-7.374,1.805c-2.09,1.207-3.691,2.928-4.807,5.168
			c-1.112,2.242-1.67,4.838-1.67,7.795c0,4.728,1.148,8.342,3.447,10.842c2.299,2.502,5.604,3.753,9.914,3.753
			c3.01,0,5.705-0.528,8.088-1.583v-6.523c-1.198,0.492-2.391,0.916-3.574,1.27c-1.186,0.352-2.411,0.525-3.674,0.525
			c-4.182,0-6.271-2.746-6.271-8.242c0-2.646,0.515-4.719,1.544-6.224C84.589,84.553,86.021,83.802,87.857,83.802z"/>
		<path d="M124.059,77.883h-8.438l-5.998,8.75c-1.188,1.667-1.975,2.887-2.364,3.654V77.883h-0.302
			c0.205-0.072,0.402-0.174,0.584-0.311c0.966-0.721,1.164-2.092,0.441-3.059c-1.158-1.547-2.211-3.697-2.146-4.371
			c0.317-0.951,1.887-2.439,2.86-3.154c0.244-0.18,0.438-0.396,0.584-0.637c0.082,0.002,0.166,0.004,0.254,0.004
			c0.139,0,0.277,0,0.416,0c0.492,8.385,1.629,9.674,2.01,10.105c0.674,0.766,1.705,1.145,3.087,1.145
			c1.467,0,3.328-0.429,5.571-1.285c1.125-0.432,1.689-1.693,1.261-2.819c-0.433-1.128-1.69-1.69-2.821-1.263
			c-1.372,0.523-2.997,0.933-3.867,0.998c-0.39-1.459-0.771-5-0.922-7.918c-0.008-0.16-0.035-0.314-0.074-0.463
			c0.135-0.303,0.213-0.666,0.213-1.104l0.308-8.49c0.755-0.124,1.487-0.415,2.155-0.874c1.918-1.328,4.513-3.516,2.504-13.966
			c-0.088-0.463-0.348-0.845-0.69-1.112h1.861V17.223l-21.668,3.095l0.997,6.986l9.054-1.292L79.412,58.653L58.569,42.795
			L26.337,59.51L8.479,51.595l-2.859,6.45l20.957,9.287l31.276-16.217L80.298,68.19l19.198-21.229
			c0.373,3.171,1.445,5.493,3.228,6.895c0.718,0.563,1.494,0.921,2.257,1.13v8.124c0,0.426,0.062,0.793,0.17,1.125
			c-1.15,0.983-2.899,2.726-3.494,4.643c-0.887,2.855,1.682,6.725,2.826,8.256c0.277,0.368,0.652,0.613,1.059,0.75h-6.038v28.561
			h7.756V96.89l2.285-1.368l5.646,10.922h8.715l-8.852-15.768L124.059,77.883z M109.842,61.446l-1.148-1.575l1.148-7.674h0.023
			l1.146,7.674l-1.146,1.575H109.842z M103.035,44.54c-0.006-0.41-0.143-0.781-0.368-1.083l10.821-11.97v7.822h2.948
			c-0.534,0.414-0.829,1.101-0.692,1.811c1.365,7.109,0.547,9.173-0.978,10.227c-0.743,0.514-1.414,0.247-1.747,0.044
			c-0.344-0.211-0.729-0.293-1.103-0.265c-0.286-0.126-0.581-0.228-0.88-0.3l-1.186,1.194l-1.148-1.208
			c-0.006,0.002-0.01,0.002-0.014,0.002c-0.574,0.138-1.139,0.376-1.646,0.698c-0.37,0.044-1.238,0.063-2.034-0.563
			C103.751,49.96,103.066,47.742,103.035,44.54z"/>
		<circle cx="109.853" cy="45.788" r="4.761"/>
	</g>
</g>
<g>
</g>
<g>
</g>
<g>
</g>
<g>
</g>
<g>
</g>
<g>
</g>
<g>
</g>
<g>
</g>
<g>
</g>
<g>
</g>
<g>
</g>
<g>
</g>
<g>
</g>
<g>
</g>
<g>
</g>
</svg>
