<?xml version="1.0" ?><svg width="32px" height="32px" viewBox="0 0 32 32" id="OBJECT" xmlns="http://www.w3.org/2000/svg" fill='#152137'><defs><style>.cls-1{fill:'#152137';}</style></defs><title/><path d="M12,6.85a1,1,0,0,1-1-1V2a1,1,0,0,1,2,0V5.85A1,1,0,0,1,12,6.85Z"/><path d="M16,6.85a1,1,0,0,1-1-1V2a1,1,0,0,1,2,0V5.85A1,1,0,0,1,16,6.85Z"/><path d="M20,6.85a1,1,0,0,1-1-1V2a1,1,0,0,1,2,0V5.85A1,1,0,0,1,20,6.85Z"/><path d="M12,31a1,1,0,0,1-1-1V26.15a1,1,0,0,1,2,0V30A1,1,0,0,1,12,31Z"/><path d="M16,31a1,1,0,0,1-1-1V26.15a1,1,0,0,1,2,0V30A1,1,0,0,1,16,31Z"/><path d="M20,31a1,1,0,0,1-1-1V26.15a1,1,0,0,1,2,0V30A1,1,0,0,1,20,31Z"/><path d="M30,13H26.15a1,1,0,0,1,0-2H30a1,1,0,0,1,0,2Z"/><path d="M30,17H26.15a1,1,0,0,1,0-2H30a1,1,0,0,1,0,2Z"/><path d="M30,21H26.15a1,1,0,0,1,0-2H30a1,1,0,0,1,0,2Z"/><path d="M5.85,13H2a1,1,0,0,1,0-2H5.85a1,1,0,1,1,0,2Z"/><path d="M5.85,17H2a1,1,0,0,1,0-2H5.85a1,1,0,1,1,0,2Z"/><path d="M5.85,21H2a1,1,0,0,1,0-2H5.85a1,1,0,1,1,0,2Z"/><path class="cls-1" d="M26.12,8.71,23.29,5.88A3,3,0,0,0,21.17,5H10.83a3,3,0,0,0-2.12.88L5.88,8.71A3,3,0,0,0,5,10.83V21.17a3,3,0,0,0,.88,2.12l2.83,2.83a3,3,0,0,0,2.12.88H21.17a3,3,0,0,0,2.12-.88l2.83-2.83A3,3,0,0,0,27,21.17V10.83A3,3,0,0,0,26.12,8.71Z"/><rect height="12" rx="3" ry="3" width="12" x="10" y="10"/></svg>